<?xml version="1.0" encoding="iso-8859-1"?>
<!-- Uploaded to: SVG Repo, www.svgrepo.com, Generator: SVG Repo Mixer Tools -->
<!DOCTYPE svg PUBLIC "-//W3C//DTD SVG 1.1//EN" "http://www.w3.org/Graphics/SVG/1.1/DTD/svg11.dtd">
<svg fill="#800080" version="1.1" id="Capa_1" xmlns="http://www.w3.org/2000/svg" xmlns:xlink="http://www.w3.org/1999/xlink" 
	 width="800px" height="800px" viewBox="0 0 31.207 31.207"
	 xml:space="preserve">
<g>
	<path d="M30.854,7.891l0.354-0.354l-2.566-2.565c0.195-0.196,0.325-0.325,0.354-0.354c0.354-0.354-1.838-2.898-2.368-2.368
		c-0.041,0.041-0.169,0.169-0.354,0.354l-2.59-2.59l-0.354,0.354l2.59,2.59C25.816,3.06,25.707,3.17,25.586,3.29l-2.59-2.59
		l-0.354,0.355l2.59,2.59C25.127,3.75,25.016,3.862,24.9,3.976l-2.59-2.59l-0.354,0.355l2.59,2.589
		c-0.108,0.109-0.217,0.217-0.332,0.333l-2.59-2.59L21.27,2.427l2.59,2.59c-0.125,0.125-0.256,0.254-0.387,0.387l-2.59-2.59
		l-0.354,0.353l2.59,2.59c-0.109,0.108-0.221,0.221-0.332,0.332l-2.59-2.59l-0.354,0.355l2.591,2.59
		c-0.11,0.109-0.222,0.221-0.332,0.332l-2.59-2.59L19.157,4.54l2.59,2.589c-0.11,0.11-0.22,0.22-0.332,0.332l-2.59-2.59
		l-0.354,0.354l2.59,2.59c-0.115,0.114-0.229,0.228-0.343,0.342l-2.589-2.59l-0.355,0.355l2.59,2.59
		c-0.11,0.111-0.219,0.221-0.331,0.331l-2.591-2.589l-0.354,0.354l2.59,2.59c-0.11,0.111-0.221,0.222-0.331,0.332L16.755,6.94
		l-0.353,0.354l2.591,2.59c-0.111,0.11-0.222,0.221-0.333,0.332l-2.59-2.59l-0.354,0.354l2.591,2.59
		c-0.131,0.13-0.26,0.259-0.388,0.387l-2.589-2.59l-0.355,0.355l2.589,2.59c-0.11,0.111-0.222,0.221-0.332,0.331l-2.588-2.59
		L14.29,9.407l2.589,2.59c-0.111,0.112-0.222,0.222-0.332,0.333l-2.59-2.59l-0.354,0.354l2.59,2.59
		c-0.113,0.113-0.221,0.221-0.333,0.332l-2.59-2.589l-0.354,0.354l2.59,2.589c-0.086,0.086-0.171,0.171-0.254,0.254l-2.59-2.59
		l-0.354,0.354l2.589,2.59c-0.112,0.112-0.225,0.224-0.332,0.332l-2.59-2.589l-0.354,0.354l2.59,2.59
		c-0.117,0.117-0.225,0.225-0.333,0.333l-2.589-2.59l-0.354,0.354l2.59,2.59c-0.646,0.646-1.04,1.04-1.04,1.04l0.288,0.288
		l-0.288,0.287l-0.685-0.686L0,28.078l0.01,0.168c0.004,0.054,0.085,1.281,0.895,2.092c0.817,0.816,2.012,0.851,2.061,0.852
		l0.161,0.004l11.795-11.796l-0.708-0.708l0.288-0.287l0.354,0.354c0,0,0.393-0.394,1.04-1.04l2.566,2.564l0.354-0.354l-2.566-2.566
		c0.107-0.106,0.216-0.215,0.333-0.332l2.565,2.564l0.354-0.354l-2.564-2.565c0.106-0.106,0.219-0.22,0.332-0.333l2.564,2.566
		l0.354-0.354l-2.564-2.565c0.083-0.083,0.168-0.168,0.253-0.254l2.565,2.566l0.354-0.354l-2.565-2.566
		c0.108-0.109,0.22-0.219,0.332-0.331l2.565,2.565l0.354-0.354l-2.566-2.566c0.111-0.111,0.221-0.22,0.333-0.332l2.565,2.565
		l0.354-0.354l-2.564-2.565c0.109-0.11,0.22-0.22,0.332-0.332l2.564,2.565l0.354-0.354l-2.565-2.566
		c0.128-0.128,0.257-0.257,0.387-0.387L23.24,15.5l0.354-0.354l-2.564-2.565c0.109-0.11,0.221-0.221,0.332-0.332l2.566,2.566
		l0.354-0.354l-2.566-2.566c0.11-0.111,0.221-0.22,0.332-0.331l2.566,2.565l0.354-0.355l-2.564-2.565
		c0.111-0.111,0.221-0.221,0.332-0.332l2.564,2.565l0.354-0.354l-2.565-2.566c0.115-0.114,0.228-0.227,0.343-0.341l2.565,2.566
		l0.354-0.354l-2.566-2.566c0.113-0.112,0.222-0.221,0.332-0.331l2.566,2.565l0.354-0.354l-2.566-2.566
		c0.112-0.112,0.223-0.222,0.332-0.332l2.566,2.565l0.354-0.354l-2.564-2.566c0.111-0.111,0.222-0.222,0.33-0.332l2.566,2.566
		l0.354-0.354l-2.566-2.566c0.132-0.131,0.261-0.26,0.388-0.386l2.564,2.565l0.354-0.354l-2.564-2.566
		c0.113-0.114,0.223-0.223,0.332-0.332l2.566,2.569l0.354-0.354L27.27,6.344c0.113-0.115,0.227-0.227,0.33-0.332l2.566,2.565
		l0.354-0.354l-2.564-2.565c0.119-0.119,0.23-0.23,0.332-0.333L30.854,7.891z M2.832,30.426C2.541,30.39,1.89,30.26,1.436,29.807
		c-0.458-0.458-0.611-1.139-0.657-1.445L11.802,17.34l2.058,2.058L2.832,30.426z"/>
</g>
</svg>