<?xml version="1.0" encoding="iso-8859-1"?>
<!-- Uploaded to: SVG Repo, www.svgrepo.com, Generator: SVG Repo Mixer Tools -->
<svg height="800px" width="800px" version="1.1" id="Layer_1" xmlns="http://www.w3.org/2000/svg" xmlns:xlink="http://www.w3.org/1999/xlink" 
	 viewBox="0 0 511.663 511.663" xml:space="preserve">
<g transform="translate(-1)">
	<path style="fill:#800080;" d="M339.117,502.556h155.429c33.143-73.143-36.571-100.571-36.571-100.571
		c17.234-9.682,19.31-26.057,17.189-39.808c-1.856-12.032-8.302-22.583-16.347-31.717c-25.819-29.294-20.535-89.435-14.939-123.319
		c4.699-28.416,5.083-57.518-0.759-85.733c-10.286-49.71-30.857-66.853-30.857-66.853C327.88-29.823,256.831,8.842,256.831,8.842
		s-71.049-38.665-155.429,45.714c0,0-20.571,17.143-30.857,66.853c-5.842,28.215-5.458,57.317-0.759,85.733
		c5.595,33.883,10.88,94.025-14.939,123.319c-8.046,9.134-14.491,19.685-16.347,31.717c-2.121,13.751-0.046,30.126,17.189,39.808
		c0,0-69.714,27.429-36.571,100.571h155.429"/>
	<path style="fill:#DBB38D;" d="M312.733,465.592c-17.673,11.986-33.253,27.785-56.155,27.785
		c-22.894,0-38.482-15.799-56.146-27.785c-8.622-5.842-17.371-11.547-25.883-17.554v63.625h164.571v-63.963
		C330.442,453.834,321.519,459.64,312.733,465.592"/>
	<path style="fill:#FDD7AD;" d="M403.117,273.985c0-23.753-11.008-44.992-29.879-59.419l-116.407-96.009l-116.407,96.009
		c-18.871,14.427-29.879,35.666-29.879,59.419c0.009,57.371,4.498,121.618,47.781,162.697c6.171,5.861,12.837,11.118,19.621,16.229
		c9.819,7.397,20.142,14.098,30.4,20.882c18.286,12.078,24.951,28.763,48.485,28.763c22.903,0,29.339-15.799,47.013-27.785
		c17.664-11.986,45.102-23.342,60.635-38.089C407.762,395.603,403.108,331.356,403.117,273.985"/>
</g>
</svg>