<?xml version="1.0" encoding="UTF-8"?>
<svg xmlns="http://www.w3.org/2000/svg" xmlns:xlink="http://www.w3.org/1999/xlink" width="75px" height="75px" viewBox="0 0 75 75" version="1.1">
<defs>
<filter id="alpha" filterUnits="objectBoundingBox" x="0%" y="0%" width="100%" height="100%">
  <feColorMatrix type="matrix" in="SourceGraphic" values="0 0 0 0 1 0 0 0 0 1 0 0 0 0 1 0 0 0 1 0"/>
</filter>
<mask id="mask0">
  <g filter="url(#alpha)">
<rect x="0" y="0" width="75" height="75" style="fill:rgb(0%,0%,0%);fill-opacity:0.501961;stroke:none;"/>
  </g>
</mask>
<clipPath id="clip1">
  <rect x="0" y="0" width="75" height="75"/>
</clipPath>
<g id="surface5" clip-path="url(#clip1)">
<path style=" stroke:none;fill-rule:nonzero;fill:rgb(10.980392%,15.294118%,29.803922%);fill-opacity:1;" d="M 37.5 68.75 C 22.769531 68.75 15.402344 68.75 10.828125 64.171875 C 6.25 59.597656 6.25 52.230469 6.25 37.5 C 6.25 22.769531 6.25 15.402344 10.828125 10.828125 C 15.402344 6.25 22.769531 6.25 37.5 6.25 C 52.230469 6.25 59.597656 6.25 64.171875 10.828125 C 68.75 15.402344 68.75 22.769531 68.75 37.5 C 68.75 52.230469 68.75 59.597656 64.171875 64.171875 C 59.597656 68.75 52.230469 68.75 37.5 68.75 Z M 37.5 68.75 "/>
</g>
</defs>
<g id="surface1">
<use xlink:href="#surface5" mask="url(#mask0)"/>
<path style=" stroke:none;fill-rule:nonzero;fill:rgb(10.980392%,15.294118%,29.803922%);fill-opacity:1;" d="M 58.59375 25 C 58.59375 26.292969 57.542969 27.34375 56.25 27.34375 L 18.75 27.34375 C 17.457031 27.34375 16.40625 26.292969 16.40625 25 C 16.40625 23.707031 17.457031 22.65625 18.75 22.65625 L 56.25 22.65625 C 57.542969 22.65625 58.59375 23.707031 58.59375 25 Z M 58.59375 25 "/>
<path style=" stroke:none;fill-rule:nonzero;fill:rgb(10.980392%,15.294118%,29.803922%);fill-opacity:1;" d="M 58.59375 37.5 C 58.59375 38.792969 57.542969 39.84375 56.25 39.84375 L 18.75 39.84375 C 17.457031 39.84375 16.40625 38.792969 16.40625 37.5 C 16.40625 36.207031 17.457031 35.15625 18.75 35.15625 L 56.25 35.15625 C 57.542969 35.15625 58.59375 36.207031 58.59375 37.5 Z M 58.59375 37.5 "/>
<path style=" stroke:none;fill-rule:nonzero;fill:rgb(10.980392%,15.294118%,29.803922%);fill-opacity:1;" d="M 58.59375 50 C 58.59375 51.292969 57.542969 52.34375 56.25 52.34375 L 18.75 52.34375 C 17.457031 52.34375 16.40625 51.292969 16.40625 50 C 16.40625 48.707031 17.457031 47.65625 18.75 47.65625 L 56.25 47.65625 C 57.542969 47.65625 58.59375 48.707031 58.59375 50 Z M 58.59375 50 "/>
</g>
</svg>
