<?xml version="1.0" encoding="UTF-8"?>
<svg xmlns="http://www.w3.org/2000/svg" xmlns:xlink="http://www.w3.org/1999/xlink" width="50px" height="50px" viewBox="0 0 50 50" version="1.1">
<g id="surface1">
<path style=" stroke:none;fill-rule:nonzero;fill:rgb(13.72549%,12.156863%,12.54902%);fill-opacity:1;" d="M 48.625 41.996094 L 40.296875 33.667969 C 42.480469 30.261719 43.75 26.21875 43.75 21.875 C 43.75 9.792969 33.957031 0 21.875 0 C 9.792969 0 0 9.792969 0 21.875 C 0 33.957031 9.792969 43.75 21.875 43.75 C 26.21875 43.75 30.261719 42.480469 33.667969 40.296875 L 41.996094 48.625 C 43.828125 50.457031 46.796875 50.457031 48.625 48.625 C 50.457031 46.796875 50.457031 43.828125 48.625 41.996094 Z M 21.875 42.1875 C 10.65625 42.1875 1.5625 33.09375 1.5625 21.875 C 1.5625 10.65625 10.65625 1.5625 21.875 1.5625 C 33.09375 1.5625 42.1875 10.65625 42.1875 21.875 C 42.1875 33.09375 33.09375 42.1875 21.875 42.1875 Z M 47.523438 47.523438 C 46.300781 48.742188 44.324219 48.742188 43.101562 47.523438 L 34.976562 39.394531 C 36.652344 38.140625 38.140625 36.648438 39.394531 34.976562 L 47.523438 43.101562 C 48.742188 44.320312 48.742188 46.300781 47.523438 47.523438 Z M 47.523438 47.523438 "/>
<path style=" stroke:none;fill-rule:nonzero;fill:rgb(13.72549%,12.156863%,12.54902%);fill-opacity:1;" d="M 21.875 3.125 C 11.519531 3.125 3.125 11.519531 3.125 21.875 C 3.125 32.230469 11.519531 40.625 21.875 40.625 C 32.230469 40.625 40.625 32.230469 40.625 21.875 C 40.625 11.519531 32.230469 3.125 21.875 3.125 Z M 21.875 39.0625 C 12.382812 39.0625 4.6875 31.367188 4.6875 21.875 C 4.6875 12.382812 12.382812 4.6875 21.875 4.6875 C 31.367188 4.6875 39.0625 12.382812 39.0625 21.875 C 39.0625 31.367188 31.367188 39.0625 21.875 39.0625 Z M 21.875 39.0625 "/>
<path style=" stroke:none;fill-rule:nonzero;fill:rgb(13.72549%,12.156863%,12.54902%);fill-opacity:1;" d="M 21.875 8.59375 C 21.441406 8.59375 21.09375 8.941406 21.09375 9.375 C 21.09375 9.808594 21.441406 10.15625 21.875 10.15625 C 28.347656 10.15625 33.59375 15.402344 33.59375 21.875 C 33.59375 22.308594 33.941406 22.65625 34.375 22.65625 C 34.808594 22.65625 35.15625 22.308594 35.15625 21.875 C 35.15625 14.539062 29.210938 8.59375 21.875 8.59375 Z M 21.875 8.59375 "/>
</g>
</svg>
