<?xml version="1.0" encoding="utf-8"?>
<!-- Uploaded to: SVG Repo, www.svgrepo.com, Generator: SVG Repo Mixer Tools -->
<svg width="800px" height="800px" viewBox="0 0 1024 1024" class="icon"  version="1.1" xmlns="http://www.w3.org/2000/svg"><path d="M725.155704 17.905079h42.63114v136.41965h-42.63114z" fill="#800080" /><path d="M767.786844 171.377186h-42.63114c-9.378851 0-17.052456-7.673605-17.052457-17.052457V17.905079c0-9.378851 7.673605-17.052456 17.052457-17.052456h42.63114c9.378851 0 17.052456 7.673605 17.052457 17.052456v136.41965c0 9.378851-7.673605 17.052456-17.052457 17.052457z m-25.578684-34.104913h8.526228V34.957535h-8.526228v102.314738z" fill="#800080" /><path d="M256.213156 17.905079h42.63114v136.41965h-42.63114z" fill="#800080" /><path d="M298.844296 171.377186h-42.63114c-9.378851 0-17.052456-7.673605-17.052457-17.052457V17.905079c0-9.378851 7.673605-17.052456 17.052457-17.052456h42.63114c9.378851 0 17.052456 7.673605 17.052457 17.052456v136.41965c0 9.378851-7.673605 17.052456-17.052457 17.052457z m-25.578684-34.104913h8.526228V34.957535h-8.526228v102.314738z" fill="#800080" /><path d="M725.155704 205.482098H298.844296V17.905079l29.841799 42.631141 19.610325-42.631141 26.431307 42.631141 24.726062-42.631141 21.31557 42.631141 22.168193-42.631141 20.462948 42.631141 23.873438-42.631141 27.28393 42.631141 23.873439-42.631141 23.873439 42.631141 21.31557-42.631141 17.90508 42.631141L622.840966 17.905079l21.31557 42.631141 23.873439-42.631141 23.873439 42.631141L725.155704 17.905079z" fill="#800080" /><path d="M725.155704 222.534555H298.844296c-9.378851 0-17.052456-7.673605-17.052456-17.052457V17.905079c0-7.673605 5.115737-13.641965 11.93672-16.199833 6.820983-2.557868 14.494588 0 18.757701 6.820982L325.275604 26.431307l7.673605-15.34721c2.557868-5.96836 8.526228-9.378851 14.494588-10.231474 5.96836 0 11.936719 2.557868 15.34721 7.673605l11.084097 18.757702L384.106578 9.378851c3.410491-5.115737 8.526228-8.526228 15.347211-8.526228 5.96836 0 11.936719 3.410491 14.494587 9.378851l5.96836 12.789342 6.820983-12.789342C430.14821 4.263114 435.263947 0.852623 442.084929 0.852623s11.936719 4.263114 15.347211 9.378851l5.96836 12.789342 8.526228-14.494588c3.410491-5.115737 8.526228-8.526228 14.494588-8.526228s11.936719 2.557868 14.494587 7.673605L512 26.431307l11.936719-17.052456c3.410491-5.115737 8.526228-8.526228 14.494588-8.526228s11.936719 3.410491 14.494588 8.526228l7.673605 14.494588 6.820983-13.641965C570.830974 4.263114 576.799334 0.852623 583.620316 0.852623c6.820983 0 12.789342 4.263114 15.347211 10.231474l3.410491 8.526228 5.115737-9.378851C610.051624 4.263114 616.019983 0.852623 622.840966 0.852623s12.789342 3.410491 15.347211 9.378851l6.820982 14.494588 8.526228-15.347211c3.410491-5.115737 8.526228-8.526228 15.347211-8.526228 5.96836 0 11.936719 3.410491 14.494588 8.526228l11.084096 19.610325L712.366361 6.820983c4.263114-5.96836 11.936719-7.673605 18.757702-5.96836 6.820983 3.410491 11.084097 9.378851 11.084097 17.052456v187.577019c0 9.378851-7.673605 17.052456-17.052456 17.052457z m-409.258951-34.104913h392.206494V67.357202l-3.410491 4.263114c-3.410491 4.263114-8.526228 5.96836-14.494588 5.96836-5.96836-0.852623-11.084097-3.410491-13.641965-8.526228l-8.526228-16.199834L658.651124 69.062448c-3.410491 5.115737-8.526228 8.526228-15.347211 8.526228-5.96836 0-11.936719-3.410491-14.494587-9.378851L622.840966 56.273106l-5.96836 11.936719c-3.410491 5.96836-9.378851 9.378851-16.199833 9.378851-6.820983 0-12.789342-4.263114-15.347211-10.231474l-3.410491-8.526228-5.115737 9.378851c-2.557868 5.96836-8.526228 9.378851-15.347211 9.378851-5.96836 0-11.936719-3.410491-15.34721-8.526228l-8.526229-16.199834L529.052456 69.062448c-3.410491 5.115737-8.526228 8.526228-14.494588 8.526228s-11.936719-2.557868-14.494587-7.673605l-11.084097-18.757702L477.895087 69.062448c-3.410491 5.115737-9.378851 8.526228-15.34721 8.526228s-11.936719-4.263114-14.494588-9.378851l-5.96836-11.936719-6.820982 11.936719c-2.557868 5.96836-8.526228 9.378851-14.494588 9.378851-6.820983 0-11.936719-3.410491-15.347211-9.378851l-6.820982-14.494588-8.526228 15.347211c-3.410491 5.115737-8.526228 8.526228-14.494588 8.526228s-11.936719-2.557868-14.494588-7.673605l-9.378851-15.347211-5.96836 13.641965c-4.263114 5.115737-9.378851 8.526228-15.34721 9.378851-5.115737 0-11.084097-1.705246-14.494588-5.96836V188.429642z" fill="#800080" /><path d="M512 1006.947544c-107.430475 0-223.387177-161.145712-230.20816-287.333889 0-6.820983 0-13.641965 0.852623-21.31557 4.263114-37.515404 17.905079-167.966694 9.378851-238.734388L256.213156 145.798501h511.573688l-36.662781 313.765196c-8.526228 70.767694 5.115737 201.218984 9.378851 238.734388 0.852623 6.820983 1.705246 13.641965 0.852623 21.31557C735.387177 845.801832 611.756869 1006.947544 512 1006.947544z" fill="#F48FB1" /><path d="M512 1024c-119.367194 0-240.439634-171.377186-247.260616-303.533722 0-6.820983 0-14.494588 0.852623-23.873439 4.263114-37.515404 17.905079-166.261449 9.378851-234.471274L239.160699 147.503747c-0.852623-5.115737 0.852623-9.378851 4.263114-13.641965 3.410491-3.410491 7.673605-5.96836 12.789343-5.96836h511.573688c5.115737 0 9.378851 1.705246 12.789343 5.96836 3.410491 3.410491 5.115737 8.526228 4.263114 13.641965L748.17652 461.268943c-7.673605 68.209825 5.115737 196.95587 9.378851 234.471273 0.852623 5.96836 1.705246 14.494588 0.852622 23.873439-5.96836 127.893422-132.156536 304.386345-246.407993 304.386345zM275.82348 162.850958l34.104913 295.007493c8.526228 72.472939-5.115737 203.776853-9.378851 242.997502-1.705246 6.820983-1.705246 12.789342-1.705246 17.905079 6.820983 137.272273 127.893422 271.134055 213.155704 271.134055 86.967527 0 206.334721-152.619484 213.155704-271.134055 0-5.115737 0-11.084097-0.852623-17.905079-4.263114-38.368027-17.905079-170.524563-9.378851-242.997502l34.104912-295.007493H275.82348z" fill="#800080" /><path d="M512 1006.947544c-107.430475 0-223.387177-161.145712-230.20816-287.333889 0-6.820983 0-13.641965 0.852623-21.31557 4.263114-37.515404 17.905079-167.966694 9.378851-238.734388 63.094088-219.976686 375.154038-220.829309 438.248126 0-8.526228 70.767694 5.115737 201.218984 9.378851 238.734388 0.852623 6.820983 1.705246 13.641965 0.852623 21.31557C735.387177 845.801832 611.756869 1006.947544 512 1006.947544z" fill="#FCE4EC" /><path d="M512 1024c-119.367194 0-240.439634-171.377186-247.260616-303.533722 0-6.820983 0-14.494588 0.852623-23.873439 4.263114-37.515404 17.905079-166.261449 9.378851-234.471274 0-2.557868 0-4.263114 0.852622-6.820982C307.370525 347.017485 399.453789 277.102415 512 277.102415s204.629475 69.915071 235.323897 177.345545c0.852623 2.557868 0.852623 4.263114 0.852623 6.820983-7.673605 69.062448 5.115737 196.95587 9.378851 234.471273 0.852623 9.378851 1.705246 17.052456 0.852622 23.873439-5.96836 127.893422-132.156536 304.386345-246.407993 304.386345zM309.928393 461.268943c7.673605 73.325562-5.96836 201.218984-10.231474 239.58701-0.852623 6.820983-0.852623 12.789342-0.852623 17.905079 6.820983 137.272273 127.893422 271.134055 213.155704 271.134055 86.967527 0 206.334721-152.619484 213.155704-271.134055 0-5.115737 0-11.084097-0.852623-17.905079-4.263114-38.368027-17.905079-166.261449-10.231474-239.58701C686.787677 370.038301 607.493755 311.207327 512 311.207327S338.064946 370.038301 309.928393 461.268943z" fill="#800080" /><path d="M724.303081 698.298085c-4.263114-37.515404-17.905079-167.966694-9.378851-238.734388-10.231474-35.810158-28.989176-80.146545-53.715237-86.967527 4.263114 7.673605 16.199833 254.081599 20.462947 291.597002 0.852623 6.820983 1.705246 13.641965 0.852623 21.315571-6.820983 126.188177-130.451291 287.333888-230.20816 287.333888-25.578684 0-52.862614-9.378851-77.588676-25.578684 36.662781 35.810158 79.293922 59.683597 120.219817 59.683597 99.756869 0 223.387177-161.145712 230.20816-287.333889 0-7.673605 0-14.494588-0.852623-21.31557z" fill="#F8BBD0" /><path d="M512 1024c-119.367194 0-240.439634-171.377186-247.260616-303.533722 0-6.820983 0-14.494588 0.852623-23.873439 4.263114-37.515404 17.905079-166.261449 9.378851-234.471274 0-2.557868 0-4.263114 0.852622-6.820982C307.370525 347.017485 399.453789 277.102415 512 277.102415s204.629475 69.915071 235.323897 177.345545c0.852623 2.557868 0.852623 4.263114 0.852623 6.820983-7.673605 69.062448 5.115737 196.95587 9.378851 234.471273 0.852623 9.378851 1.705246 17.052456 0.852622 23.873439-5.96836 127.893422-132.156536 304.386345-246.407993 304.386345zM309.928393 461.268943c7.673605 73.325562-5.96836 201.218984-10.231474 239.58701-0.852623 6.820983-0.852623 12.789342-0.852623 17.905079 6.820983 137.272273 127.893422 271.134055 213.155704 271.134055 86.967527 0 206.334721-152.619484 213.155704-271.134055 0-5.115737 0-11.084097-0.852623-17.905079-4.263114-38.368027-17.905079-166.261449-10.231474-239.58701C686.787677 370.038301 607.493755 311.207327 512 311.207327S338.064946 370.038301 309.928393 461.268943z" fill="#800080" /><path d="M517.115737 785.265612h-11.084097c-52.009992 0-93.78851-41.778518-93.788509-93.78851V580.636137c0-52.009992 41.778518-93.78851 93.788509-93.78851h11.084097c52.009992 0 93.78851 41.778518 93.788509 93.78851v110.840965c0 52.009992-41.778518 93.78851-93.788509 93.78851z" fill="#800080" /><path d="M517.115737 802.318068h-10.231474c-61.388843 0-110.840966-49.452123-110.840966-110.840966V580.636137c0-61.388843 49.452123-110.840966 110.840966-110.840966h10.231474c61.388843 0 110.840966 49.452123 110.840966 110.840966v110.840965c0 61.388843-49.452123 110.840966-110.840966 110.840966z m-10.231474-298.417985c-42.631141 0-76.736053 34.104913-76.736053 76.736054v110.840965c0 42.631141 34.104913 76.736053 76.736053 76.736054h10.231474c42.631141 0 76.736053-34.104913 76.736053-76.736054V580.636137c0-42.631141-34.104913-76.736053-76.736053-76.736054h-10.231474z" fill="#800080" /><path d="M512 725.582015c-25.578684 0-46.894255-21.31557-46.894255-46.894255v-42.631141c0-25.578684 21.31557-46.894255 46.894255-46.894254s46.894255 21.31557 46.894255 46.894254v42.631141c0 25.578684-21.31557 46.894255-46.894255 46.894255z" fill="#FFEE58" /><path d="M512 742.634471c-34.957535 0-63.946711-28.989176-63.946711-63.946711v-42.631141c0-34.957535 28.989176-63.946711 63.946711-63.946711s63.946711 28.989176 63.946711 63.946711v42.631141c0 34.957535-28.989176 63.946711-63.946711 63.946711z m0-136.41965c-16.199833 0-29.841799 13.641965-29.841799 29.841798v42.631141c0 16.199833 13.641965 29.841799 29.841799 29.841799s29.841799-13.641965 29.841799-29.841799v-42.631141c0-16.199833-13.641965-29.841799-29.841799-29.841798z" fill="#EC407A" /></svg>